<?xml version="1.0" encoding="utf-8"?>
<!-- Generator: Adobe Illustrator 24.1.3, SVG Export Plug-In . SVG Version: 6.00 Build 0)  -->
<svg version="1.1" id="Layer_2" xmlns="http://www.w3.org/2000/svg" xmlns:xlink="http://www.w3.org/1999/xlink" x="0px" y="0px"
	 viewBox="0 0 1024 1024" style="enable-background:new 0 0 1024 1024;" xml:space="preserve">
<g>
	<path d="M562.76,0.13c-5.18-0.7-10.29,1.42-13.57,5.44c-3.29,4.02-4.28,9.46-2.62,14.38c16.76,49.84,25.26,101.73,25.26,154.22
		c0,266.74-217,483.75-483.74,483.75c-19.53,0-39.18-1.26-60.07-3.85c-5.23-0.72-10.29,1.41-13.57,5.44
		c-3.29,4.02-4.28,9.46-2.62,14.38C82.26,883.31,278.02,1024,498.97,1024c283.41,0,513.98-230.57,513.98-513.98
		C1012.95,251.14,819.41,31.93,562.76,0.13z M48.6,686.55c13.44,1.07,26.66,1.6,39.5,1.6c283.41,0,513.98-230.57,513.98-513.98
		c0-47.64-6.59-94.81-19.61-140.56c229.79,39.93,400.25,240.69,400.25,476.41c0,266.74-217,483.75-483.74,483.75
		C298.97,993.77,120.88,871.27,48.6,686.55z"/>
	<path d="M648.17,751.48c-45.34,0-82.1,36.76-82.1,82.1c0,45.34,36.76,82.1,82.1,82.1s82.1-36.76,82.1-82.1
		C730.27,788.24,693.52,751.48,648.17,751.48z"/>
	<path d="M879.81,630.89c0-27.53-22.32-49.84-49.85-49.84c-27.53,0-49.84,22.32-49.84,49.84s22.32,49.84,49.84,49.84
		C857.49,680.73,879.81,658.41,879.81,630.89z"/>
	<circle cx="615.66" cy="581.04" r="32.51"/>
</g>
</svg>
