<?xml version="1.0" encoding="utf-8"?>
<!-- Generator: Adobe Illustrator 24.1.3, SVG Export Plug-In . SVG Version: 6.00 Build 0)  -->
<svg version="1.1" id="Layer_2" xmlns="http://www.w3.org/2000/svg" xmlns:xlink="http://www.w3.org/1999/xlink" x="0px" y="0px"
	 viewBox="0 0 1024 1024" style="enable-background:new 0 0 1024 1024;" xml:space="preserve">
<g>
	<path d="M630.83,198.76l-94.04-183.6c-10.35-20.21-39.23-20.21-49.58,0l-94.04,183.6c36.94-14.02,76.97-21.77,118.83-21.77
		S593.89,184.74,630.83,198.76z"/>
	<path d="M845.79,143.15l-196.37,63.35c74.52,33.57,134.51,93.57,168.09,168.09l63.35-196.37
		C887.82,156.6,867.4,136.18,845.79,143.15z"/>
	<path d="M1008.84,487.21l-183.6-94.04c14.02,36.94,21.76,76.97,21.76,118.83s-7.74,81.89-21.76,118.83l183.6-94.04
		C1029.05,526.44,1029.05,497.56,1008.84,487.21z"/>
	<path d="M880.85,845.79l-63.35-196.37c-33.57,74.52-93.57,134.51-168.09,168.09l196.37,63.35
		C867.4,887.82,887.82,867.4,880.85,845.79z"/>
	<path d="M393.17,825.24l94.04,183.6c10.35,20.21,39.23,20.21,49.58,0l94.04-183.6c-36.94,14.02-76.97,21.77-118.83,21.77
		S430.11,839.26,393.17,825.24z"/>
	<path d="M178.21,880.85l196.37-63.35c-74.52-33.57-134.51-93.57-168.09-168.09l-63.35,196.37
		C136.18,867.4,156.6,887.82,178.21,880.85z"/>
	<path d="M15.16,487.21c-20.21,10.35-20.21,39.23,0,49.58l183.6,94.04c-14.02-36.94-21.77-76.97-21.77-118.83
		s7.74-81.89,21.77-118.83L15.16,487.21z"/>
	<path d="M206.49,374.58c33.57-74.52,93.57-134.51,168.09-168.09l-196.37-63.35c-21.61-6.97-42.03,13.45-35.06,35.06L206.49,374.58z
		"/>
	<path d="M769.56,659.35c12.36-21.57,22.11-44.82,28.77-69.35c6.76-24.86,10.43-51,10.43-78c0-27-3.67-53.14-10.43-78
		c-6.67-24.53-16.41-47.78-28.77-69.35c-26.27-45.82-64.39-83.94-110.22-110.22c-21.57-12.37-44.81-22.11-69.35-28.77
		c-24.86-6.76-51-10.43-78-10.43s-53.14,3.67-78,10.43c-24.53,6.67-47.78,16.41-69.35,28.77c-45.82,26.27-83.94,64.39-110.22,110.22
		c-12.36,21.57-22.11,44.82-28.77,69.35c-6.76,24.86-10.43,51-10.43,78c0,27,3.67,53.14,10.43,78
		c6.67,24.53,16.41,47.78,28.77,69.35c26.27,45.82,64.39,83.94,110.22,110.22c21.57,12.37,44.81,22.11,69.35,28.77
		c24.86,6.76,51,10.43,78,10.43s53.14-3.67,78-10.43c24.53-6.67,47.78-16.41,69.35-28.77C705.17,743.29,743.29,705.17,769.56,659.35
		z"/>
</g>
</svg>
